<svg xmlns="http://www.w3.org/2000/svg" viewBox="38.995 60 794.1 492.7">
	<path d="m 50.265 552.222 l -9.235 -0.297 l -2.035 -3.803 l 0.505 -399.622 l 16.5 -0.5 l 0.071 -19 h 10.529 l 2.4 -2.4 v -11.482 l 2.5 -1.618 l 51 -1 l 1.045 -30.247 l 2.462 -2.966 l 14.244 -1.324 l 1.749 -1.081 v -11.66 l 3.5 -4.281 l 221.5 -0.941 l 4 5.377 v 10.24 l 2.5 3.327 l 16.915 0.556 l 1.386 5 l 0.199 28.5 h 262 l 1.272 16 l 30.228 0.031 l 3 1.892 l 1 44.98 l 2.552 2.549 l 138.448 0.74 l 2 1.905 l 0.598 70.224 l -2.598 1.648 l -12 0.058 l -4.604 1.234 l 0.437 29.806 l -2.296 2.296 l -12.168 1.434 l -1.26 1.26 l -1.109 49.78 l -1.65 1.646 l -15.608 2.659 l 0.013 27.82 l -3.301 5.038 l -9.918 2.5 l 0.464 30.546 l -19.5 3.904 v 29.805 l -3.235 2.685 l -16.171 1.06 l -0.594 16.5 l -15 3 v 31.882 l -2.243 1.386 l -21.757 0.732 l 0 31.836 l -1.214 3.164 h -13.786 l -0.164 14.438 l -1.772 3.311 z m 39.735 -20.222 l 11 0 l 2 -2 l 0 -19 l 2.081 -2.312 l 12.419 -1.188 l 1 -31 l 1.618 -2.5 h 16.932 l 1.869 -4.918 l 0.445 -27.207 l 3.636 -2.875 l 10.5 -0.5 l 0.5 -15.5 l 2 -2 l 15.225 -0.825 l 2.275 -2.274 l 0.294 -31.029 l 1.233 -1.232 l 17.135 -0.9 l 0.713 -2.24 l 0.851 -29.626 l 2.244 -2.244 l 12.03 -0.87 l 0.5 -31.689 l 3.183 -3.182 h 15.317 v -51.819 l 3.87 -2.07 h 10.951 l 0.68 -30.697 l 2.745 -3.303 h 11.625 l 4.839 -1.84 l 0.408 -41.66 l 2.859 -4.392 l 401.023 -1.108 l 1.97 -3.5 v -22.5 l -29.469 -1.764 l -4.5 -1.371 v -12.722 l -3.143 -3.143 l -257.181 -0.924 l -2.176 -2.169 l -1.114 -28.854 l -1.267 -1.266 l -17.619 -1.049 l -1.501 -1.738 l -0.239 -9.499 l -5.068 -7.001 l -177.192 -0.446 l -4.5 0.984 v 14.58 l -2.545 3.48 l -14.678 0.922 l -1.777 1.098 v 25.973 l -4.909 4.909 l -47.092 0 l -1.999 3.118 v 11.5 l -2.624 3.588 l -13.377 -0.206 l -0.285 16.059 l -2.715 2.941 l -10.499 0.656 l -0.501 358.344 l 2 4 z m 557.56 -0.8 l 5.44 -2.137 l 0.2 -9.563 l 1.379 -4.949 l 12.921 -2.051 l 1.26 -27 l 1.41 -4.256 l 4.924 -2.244 l 11.406 -0.027 l 4.46 -1.196 l 1.066 -31.203 l 2.057 -2.057 l 11.417 -1.017 l 1.5 -16.5 l 20 -2 l -0.739 -32.798 l 4.833 -2.202 h 14.969 l 0.866 -2.5 l 0.657 -30.626 l 2.914 -1.843 l 10.5 -0.031 l -0.172 -32.838 l 3.77 -2.018 l 12.359 -1.398 l 1.609 -49.712 l 2.282 -2.282 l 11.652 -1.252 l 1 -33 l 18 -2 v -29.338 l -1.666 -1.662 h -526.334 l -0.537 46.449 l -3.463 1.778 l -14.737 1.176 l -1.19 1.191 l -0.772 29.406 l -1.718 3.214 h -11.288 l -1.764 2.786 l -0.016 22.64 l -0.015 22.638 l -3.553 4.388 l -16.447 0.834 l 0 33 l -2.5 2.75 l -7.75 0.502 l -2.75 2.748 v 27.69 l -3.5 3.089 l -13.494 0.815 l -2.22 2.22 l -0.808 29.686 l -3.36 2.5 h -12.454 l -3.164 2 l 0 12 l -5 5 l -10.274 1.584 l -0.226 30.11 l -2.499 3.009 l -16.367 1.262 l -1.446 1.535 l -0.188 34.5 l 505.62 0.254 z m 70.94 -235.005 l -6.5 -0.195 l 0.038 -7 h 3.844 l 1.618 -2.5 l 1.11 -22.325 l 2.635 -3.175 h 4.355 l 2.4 -2.4 v -13.436 l 1.214 -3.164 h 7.572 l 1.214 -3.164 v -12.454 l 10 -0.382 l 0 25 l -2 3 h -3.857 l -3.143 3.143 l -1 14.857 l -7.5 1.986 l -0.5 10.688 l -0.5 10.688 z m -63.5 -2.195 l 0.146 -4.5 l 4.854 -3.667 l 1.5 -22.608 l 7.5 -3.122 v -11.973 l 2 -5.13 l 8 -1 l -0.067 -14.006 l 2.006 -3.749 l 6.561 -0.121 l 1 0.97 l 0.665 25.005 l -3.165 3.901 l -5.032 -0.045 l -1.968 5.175 v 12.87 l -5.691 2.753 l -0.572 9.586 l -0.572 9.585 l -1.283 2.076 h -15.882 z" fill="#000000"/>
</svg>